<?xml version="1.0" standalone="no"?><!DOCTYPE svg PUBLIC "-//W3C//DTD SVG 1.1//EN" "http://www.w3.org/Graphics/SVG/1.1/DTD/svg11.dtd"><svg t="1607067179738" class="icon" viewBox="0 0 1024 1024" version="1.1" xmlns="http://www.w3.org/2000/svg" p-id="4265" width="48" height="48" xmlns:xlink="http://www.w3.org/1999/xlink"><defs><style type="text/css"></style></defs><path d="M218.057186 854.437299l-6.143808-2.207931a121.564201 121.564201 0 0 1-71.901753-76.893597 121.5962 121.5962 0 0 1-5.503828-41.822693v-0.063998l2.87991-64.989969 3.423893-75.485641 0.447986-9.91969 6.175807-137.467705L161.514953 192.025999h-0.63998a95.997 95.997 0 0 1 0-191.994h415.987a95.997 95.997 0 0 1 32.030999 186.522171l-14.71954 302.806537a79.9975 79.9975 0 0 0 49.118465 77.757571l5.247836 1.91994 153.691197 51.83838a202.521671 202.521671 0 0 1-114.780413 388.403862l-7.071779-2.175932-269.527577-89.021218-3.51989-1.151964-189.274085-62.494047z m618.092684-183.03428l-139.643636 307.1904a170.55467 170.55467 0 0 0 139.643636-307.1904zM576.541983 192.025999H193.545952l-14.143558 255.160026-5.567826 123.036156a223.897003 223.897003 0 0 1 67.005906-10.207681l7.711759 0.127996a223.993 223.993 0 0 1 216.31324 223.865004l-0.223993 10.015687a222.809037 222.809037 0 0 1-28.031124 98.908909l229.240836 75.677635 141.819568-311.926252a173.75457 173.75457 0 0 0-8.255742-3.103903l-6.879785-2.23993-154.23518-51.934377a111.9965 111.9965 0 0 1-76.221618-105.340709l0.127996-6.239805L576.541983 192.025999zM408.32324 877.956564a191.03403 191.03403 0 0 0 24.511234-93.949064l-0.127996-7.199775A191.994 191.994 0 0 0 240.840474 592.0135l-10.271679 0.255992a191.290022 191.290022 0 0 0-49.054467 9.087716l-9.215712 3.231899-5.823818 130.267929v0.031999l-0.063998 5.695822a89.91719 89.91719 0 0 0 56.31824 81.501453l5.343833 1.951939 177.434455 58.590169zM160.842974 32.030999a63.998 63.998 0 0 0 0 127.996V32.030999z m127.996 0h-95.997v127.996h95.997V32.030999z m287.991 0v127.996a63.998 63.998 0 0 0 0-127.996z m-31.999 0h-95.997v127.996h95.997V32.030999z m-127.996 0h-95.997v127.996h95.997V32.030999z" p-id="4266"></path></svg>