<?xml version="1.0" encoding="UTF-8"?>
<svg xmlns="http://www.w3.org/2000/svg" xmlns:xlink="http://www.w3.org/1999/xlink" width="685.871875" height="278.12875" viewBox="0 0 685.871875 278.12875">
<defs>
<g>
<g id="glyph-0-0">
<path d="M 6.417969 -5.09375 C 6.417969 -6.363281 6.292969 -7.257812 6.058594 -7.789062 C 5.820312 -8.304688 5.414062 -8.570312 4.855469 -8.570312 C 4.296875 -8.570312 3.894531 -8.304688 3.65625 -7.789062 C 3.40625 -7.257812 3.292969 -6.363281 3.292969 -5.09375 C 3.292969 -3.808594 3.40625 -2.902344 3.65625 -2.371094 C 3.894531 -1.84375 4.296875 -1.589844 4.855469 -1.589844 C 5.414062 -1.589844 5.804688 -1.84375 6.058594 -2.371094 C 6.292969 -2.902344 6.417969 -3.808594 6.417969 -5.09375 Z M 9.042969 -5.082031 C 9.042969 -3.390625 8.679688 -2.09375 7.957031 -1.1875 C 7.230469 -0.265625 6.195312 0.179688 4.855469 0.179688 C 3.515625 0.179688 2.484375 -0.265625 1.757812 -1.1875 C 1.03125 -2.09375 0.667969 -3.390625 0.667969 -5.082031 C 0.667969 -6.753906 1.03125 -8.054688 1.757812 -8.972656 C 2.484375 -9.894531 3.515625 -10.355469 4.855469 -10.355469 C 6.195312 -10.355469 7.230469 -9.894531 7.957031 -8.972656 C 8.679688 -8.054688 9.042969 -6.753906 9.042969 -5.082031 Z M 9.042969 -5.082031 "/>
</g>
<g id="glyph-0-1">
<path d="M 4.019531 -1.925781 L 8.5 -1.925781 L 8.5 0 L 1.101562 0 L 1.101562 -1.925781 L 4.816406 -5.207031 C 5.148438 -5.5 5.386719 -5.792969 5.554688 -6.085938 C 5.707031 -6.363281 5.792969 -6.671875 5.792969 -6.976562 C 5.792969 -7.453125 5.625 -7.828125 5.304688 -8.121094 C 4.980469 -8.414062 4.5625 -8.570312 4.035156 -8.570312 C 3.613281 -8.570312 3.167969 -8.472656 2.695312 -8.304688 C 2.207031 -8.121094 1.6875 -7.855469 1.128906 -7.523438 L 1.128906 -9.753906 C 1.714844 -9.949219 2.304688 -10.089844 2.890625 -10.203125 C 3.460938 -10.300781 4.019531 -10.355469 4.578125 -10.355469 C 5.792969 -10.355469 6.742188 -10.078125 7.410156 -9.546875 C 8.082031 -9.015625 8.429688 -8.261719 8.429688 -7.3125 C 8.429688 -6.753906 8.277344 -6.222656 7.996094 -5.75 C 7.703125 -5.277344 7.105469 -4.632812 6.195312 -3.839844 Z M 4.019531 -1.925781 "/>
</g>
<g id="glyph-0-2">
<path d="M 5.136719 -8.011719 L 2.261719 -3.753906 L 5.136719 -3.753906 Z M 4.703125 -10.175781 L 7.621094 -10.175781 L 7.621094 -3.753906 L 9.070312 -3.753906 L 9.070312 -1.855469 L 7.621094 -1.855469 L 7.621094 0 L 5.136719 0 L 5.136719 -1.855469 L 0.628906 -1.855469 L 0.628906 -4.101562 Z M 4.703125 -10.175781 "/>
</g>
<g id="glyph-0-3">
<path d="M 5.050781 -5.023438 C 4.589844 -5.023438 4.242188 -4.871094 4.019531 -4.578125 C 3.78125 -4.269531 3.671875 -3.824219 3.671875 -3.238281 C 3.671875 -2.636719 3.78125 -2.191406 4.019531 -1.898438 C 4.242188 -1.589844 4.589844 -1.453125 5.050781 -1.453125 C 5.511719 -1.453125 5.863281 -1.589844 6.085938 -1.898438 C 6.308594 -2.191406 6.433594 -2.636719 6.433594 -3.238281 C 6.433594 -3.824219 6.308594 -4.269531 6.085938 -4.578125 C 5.863281 -4.871094 5.511719 -5.023438 5.050781 -5.023438 Z M 8.289062 -9.910156 L 8.289062 -8.023438 C 7.855469 -8.21875 7.453125 -8.375 7.074219 -8.472656 C 6.683594 -8.570312 6.320312 -8.625 5.960938 -8.625 C 5.179688 -8.625 4.5625 -8.402344 4.132812 -7.96875 C 3.683594 -7.535156 3.433594 -6.894531 3.363281 -6.042969 C 3.65625 -6.265625 3.976562 -6.433594 4.339844 -6.546875 C 4.6875 -6.65625 5.066406 -6.714844 5.484375 -6.714844 C 6.519531 -6.714844 7.355469 -6.40625 7.996094 -5.792969 C 8.640625 -5.179688 8.960938 -4.382812 8.960938 -3.40625 C 8.960938 -2.316406 8.597656 -1.4375 7.886719 -0.796875 C 7.171875 -0.140625 6.222656 0.179688 5.023438 0.179688 C 3.699219 0.179688 2.679688 -0.25 1.953125 -1.144531 C 1.226562 -2.039062 0.867188 -3.292969 0.867188 -4.941406 C 0.867188 -6.617188 1.285156 -7.941406 2.136719 -8.902344 C 2.972656 -9.851562 4.144531 -10.339844 5.625 -10.339844 C 6.085938 -10.339844 6.53125 -10.300781 6.976562 -10.230469 C 7.425781 -10.160156 7.855469 -10.046875 8.289062 -9.910156 Z M 8.289062 -9.910156 "/>
</g>
<g id="glyph-0-4">
<path d="M 4.855469 -4.550781 C 4.355469 -4.550781 3.976562 -4.410156 3.726562 -4.144531 C 3.460938 -3.878906 3.335938 -3.503906 3.335938 -3 C 3.335938 -2.5 3.460938 -2.105469 3.726562 -1.84375 C 3.976562 -1.578125 4.355469 -1.453125 4.855469 -1.453125 C 5.332031 -1.453125 5.707031 -1.578125 5.972656 -1.84375 C 6.222656 -2.105469 6.363281 -2.5 6.363281 -3 C 6.363281 -3.503906 6.222656 -3.878906 5.972656 -4.144531 C 5.707031 -4.410156 5.332031 -4.550781 4.855469 -4.550781 Z M 2.945312 -5.414062 C 2.332031 -5.597656 1.855469 -5.875 1.550781 -6.265625 C 1.226562 -6.65625 1.074219 -7.132812 1.074219 -7.71875 C 1.074219 -8.582031 1.394531 -9.238281 2.039062 -9.6875 C 2.679688 -10.132812 3.613281 -10.355469 4.855469 -10.355469 C 6.085938 -10.355469 7.019531 -10.132812 7.660156 -9.6875 C 8.304688 -9.238281 8.625 -8.582031 8.625 -7.71875 C 8.625 -7.132812 8.457031 -6.65625 8.152344 -6.265625 C 7.828125 -5.875 7.367188 -5.597656 6.753906 -5.414062 C 7.4375 -5.21875 7.957031 -4.914062 8.316406 -4.480469 C 8.667969 -4.046875 8.847656 -3.503906 8.847656 -2.859375 C 8.847656 -1.855469 8.511719 -1.089844 7.84375 -0.585938 C 7.171875 -0.0703125 6.167969 0.179688 4.855469 0.179688 C 3.53125 0.179688 2.527344 -0.0703125 1.855469 -0.585938 C 1.1875 -1.089844 0.851562 -1.855469 0.851562 -2.859375 C 0.851562 -3.503906 1.019531 -4.046875 1.382812 -4.480469 C 1.730469 -4.914062 2.246094 -5.21875 2.945312 -5.414062 Z M 3.558594 -7.453125 C 3.558594 -7.046875 3.671875 -6.742188 3.894531 -6.519531 C 4.117188 -6.292969 4.4375 -6.195312 4.855469 -6.195312 C 5.261719 -6.195312 5.582031 -6.292969 5.804688 -6.519531 C 6.027344 -6.742188 6.140625 -7.046875 6.140625 -7.453125 C 6.140625 -7.855469 6.027344 -8.164062 5.804688 -8.386719 C 5.582031 -8.597656 5.261719 -8.707031 4.855469 -8.707031 C 4.4375 -8.707031 4.117188 -8.597656 3.894531 -8.375 C 3.671875 -8.152344 3.558594 -7.84375 3.558594 -7.453125 Z M 3.558594 -7.453125 "/>
</g>
<g id="glyph-0-5">
<path d="M 1.632812 -1.8125 L 3.949219 -1.8125 L 3.949219 -8.386719 L 1.578125 -7.898438 L 1.578125 -9.6875 L 3.9375 -10.175781 L 6.433594 -10.175781 L 6.433594 -1.8125 L 8.75 -1.8125 L 8.75 0 L 1.632812 0 Z M 1.632812 -1.8125 "/>
</g>
<g id="glyph-0-6">
<path d="M 6.503906 -5.484375 C 7.1875 -5.304688 7.703125 -4.996094 8.066406 -4.5625 C 8.414062 -4.117188 8.597656 -3.558594 8.597656 -2.890625 C 8.597656 -1.882812 8.207031 -1.117188 7.4375 -0.601562 C 6.65625 -0.0703125 5.539062 0.179688 4.0625 0.179688 C 3.53125 0.179688 3.015625 0.140625 2.484375 0.0546875 C 1.953125 -0.015625 1.4375 -0.140625 0.933594 -0.308594 L 0.933594 -2.332031 C 1.421875 -2.078125 1.910156 -1.898438 2.402344 -1.773438 C 2.875 -1.648438 3.347656 -1.589844 3.824219 -1.589844 C 4.523438 -1.589844 5.050781 -1.703125 5.414062 -1.953125 C 5.777344 -2.191406 5.972656 -2.539062 5.972656 -2.988281 C 5.972656 -3.445312 5.777344 -3.796875 5.402344 -4.035156 C 5.023438 -4.269531 4.464844 -4.394531 3.726562 -4.394531 L 2.679688 -4.394531 L 2.679688 -6.085938 L 3.78125 -6.085938 C 4.4375 -6.085938 4.925781 -6.183594 5.246094 -6.390625 C 5.570312 -6.585938 5.734375 -6.910156 5.734375 -7.339844 C 5.734375 -7.730469 5.570312 -8.023438 5.261719 -8.25 C 4.953125 -8.457031 4.507812 -8.570312 3.9375 -8.570312 C 3.515625 -8.570312 3.085938 -8.511719 2.652344 -8.414062 C 2.21875 -8.316406 1.785156 -8.179688 1.367188 -7.996094 L 1.367188 -9.921875 C 1.882812 -10.0625 2.402344 -10.175781 2.902344 -10.242188 C 3.40625 -10.3125 3.90625 -10.355469 4.410156 -10.355469 C 5.722656 -10.355469 6.714844 -10.132812 7.367188 -9.699219 C 8.023438 -9.265625 8.359375 -8.609375 8.359375 -7.746094 C 8.359375 -7.144531 8.191406 -6.65625 7.886719 -6.28125 C 7.578125 -5.902344 7.117188 -5.636719 6.503906 -5.484375 Z M 6.503906 -5.484375 "/>
</g>
<g id="glyph-0-7">
<path d="M 1.480469 -10.175781 L 7.996094 -10.175781 L 7.996094 -8.25 L 3.574219 -8.25 L 3.574219 -6.671875 C 3.769531 -6.726562 3.964844 -6.769531 4.171875 -6.796875 C 4.367188 -6.824219 4.578125 -6.839844 4.800781 -6.839844 C 6.042969 -6.839844 7.007812 -6.519531 7.703125 -5.902344 C 8.386719 -5.289062 8.738281 -4.425781 8.738281 -3.320312 C 8.738281 -2.21875 8.359375 -1.355469 7.605469 -0.738281 C 6.851562 -0.125 5.804688 0.179688 4.480469 0.179688 C 3.894531 0.179688 3.320312 0.125 2.761719 0.015625 C 2.191406 -0.0820312 1.632812 -0.25 1.074219 -0.472656 L 1.074219 -2.539062 C 1.632812 -2.21875 2.148438 -1.980469 2.652344 -1.828125 C 3.152344 -1.660156 3.613281 -1.589844 4.0625 -1.589844 C 4.6875 -1.589844 5.191406 -1.746094 5.554688 -2.050781 C 5.917969 -2.359375 6.113281 -2.792969 6.113281 -3.320312 C 6.113281 -3.851562 5.917969 -4.269531 5.554688 -4.578125 C 5.191406 -4.882812 4.6875 -5.050781 4.0625 -5.050781 C 3.671875 -5.050781 3.265625 -4.996094 2.847656 -4.898438 C 2.429688 -4.800781 1.96875 -4.648438 1.480469 -4.453125 Z M 1.480469 -10.175781 "/>
</g>
<g id="glyph-1-0">
<path d="M 0.539062 -13.082031 L 3.769531 -13.082031 L 6.027344 -3.570312 L 8.273438 -13.082031 L 11.519531 -13.082031 L 13.761719 -3.570312 L 16.023438 -13.082031 L 19.234375 -13.082031 L 16.148438 0 L 12.253906 0 L 9.886719 -9.941406 L 7.535156 0 L 3.644531 0 Z M 0.539062 -13.082031 "/>
</g>
<g id="glyph-1-1">
<path d="M 6.171875 -7.804688 C 5.472656 -7.804688 4.933594 -7.554688 4.574219 -7.050781 C 4.214844 -6.550781 4.039062 -5.832031 4.039062 -4.898438 C 4.039062 -3.949219 4.214844 -3.230469 4.574219 -2.726562 C 4.933594 -2.226562 5.472656 -1.992188 6.171875 -1.992188 C 6.855469 -1.992188 7.375 -2.226562 7.734375 -2.726562 C 8.09375 -3.230469 8.289062 -3.949219 8.289062 -4.898438 C 8.289062 -5.832031 8.09375 -6.550781 7.734375 -7.050781 C 7.375 -7.554688 6.855469 -7.804688 6.171875 -7.804688 Z M 6.171875 -10.046875 C 7.859375 -10.046875 9.167969 -9.582031 10.121094 -8.683594 C 11.070312 -7.769531 11.554688 -6.511719 11.554688 -4.898438 C 11.554688 -3.285156 11.070312 -2.007812 10.121094 -1.113281 C 9.167969 -0.214844 7.859375 0.234375 6.171875 0.234375 C 4.484375 0.234375 3.15625 -0.214844 2.207031 -1.113281 C 1.238281 -2.007812 0.773438 -3.285156 0.773438 -4.898438 C 0.773438 -6.511719 1.238281 -7.769531 2.207031 -8.683594 C 3.15625 -9.582031 4.484375 -10.046875 6.171875 -10.046875 Z M 6.171875 -10.046875 "/>
</g>
<g id="glyph-1-2">
<path d="M 8.792969 -7.140625 C 8.503906 -7.265625 8.234375 -7.355469 7.96875 -7.429688 C 7.699219 -7.484375 7.429688 -7.519531 7.160156 -7.519531 C 6.351562 -7.519531 5.722656 -7.25 5.292969 -6.746094 C 4.863281 -6.226562 4.648438 -5.492188 4.648438 -4.523438 L 4.648438 0 L 1.507812 0 L 1.507812 -9.816406 L 4.648438 -9.816406 L 4.648438 -8.199219 C 5.042969 -8.847656 5.492188 -9.3125 6.027344 -9.601562 C 6.550781 -9.886719 7.175781 -10.046875 7.914062 -10.046875 C 8.019531 -10.046875 8.128906 -10.03125 8.253906 -10.03125 C 8.363281 -10.03125 8.542969 -10.011719 8.792969 -9.976562 Z M 8.792969 -7.140625 "/>
</g>
<g id="glyph-1-3">
<path d="M 1.507812 -13.636719 L 4.648438 -13.636719 L 4.648438 -6.207031 L 8.253906 -9.816406 L 11.898438 -9.816406 L 7.105469 -5.3125 L 12.273438 0 L 8.46875 0 L 4.648438 -4.089844 L 4.648438 0 L 1.507812 0 Z M 1.507812 -13.636719 "/>
</g>
<g id="glyph-1-4">
<path d="M 1.507812 -13.636719 L 4.648438 -13.636719 L 4.648438 0 L 1.507812 0 Z M 1.507812 -13.636719 "/>
</g>
<g id="glyph-1-5">
<path d="M 5.902344 -4.414062 C 5.238281 -4.414062 4.738281 -4.289062 4.414062 -4.074219 C 4.089844 -3.859375 3.929688 -3.535156 3.929688 -3.105469 C 3.929688 -2.710938 4.054688 -2.386719 4.324219 -2.171875 C 4.59375 -1.9375 4.96875 -1.832031 5.4375 -1.832031 C 6.027344 -1.832031 6.53125 -2.027344 6.925781 -2.457031 C 7.320312 -2.890625 7.535156 -3.410156 7.535156 -4.054688 L 7.535156 -4.414062 Z M 10.695312 -5.597656 L 10.695312 0 L 7.535156 0 L 7.535156 -1.453125 C 7.105469 -0.84375 6.640625 -0.414062 6.117188 -0.160156 C 5.582031 0.0898438 4.953125 0.234375 4.199219 0.234375 C 3.175781 0.234375 2.351562 -0.0546875 1.722656 -0.644531 C 1.078125 -1.21875 0.773438 -1.992188 0.773438 -2.941406 C 0.773438 -4.089844 1.167969 -4.933594 1.957031 -5.472656 C 2.746094 -6.011719 3.984375 -6.28125 5.6875 -6.28125 L 7.535156 -6.28125 L 7.535156 -6.53125 C 7.535156 -7.015625 7.339844 -7.375 6.945312 -7.609375 C 6.550781 -7.839844 5.9375 -7.96875 5.113281 -7.96875 C 4.433594 -7.96875 3.804688 -7.894531 3.230469 -7.75 C 2.65625 -7.609375 2.117188 -7.410156 1.632812 -7.160156 L 1.632812 -9.546875 C 2.296875 -9.707031 2.960938 -9.832031 3.644531 -9.921875 C 4.324219 -9.996094 5.007812 -10.046875 5.6875 -10.046875 C 7.445312 -10.046875 8.71875 -9.691406 9.511719 -8.988281 C 10.300781 -8.289062 10.695312 -7.160156 10.695312 -5.597656 Z M 10.695312 -5.597656 "/>
</g>
<g id="glyph-1-6">
<path d="M 8.183594 -8.378906 L 8.183594 -13.636719 L 11.339844 -13.636719 L 11.339844 0 L 8.183594 0 L 8.183594 -1.417969 C 7.75 -0.84375 7.265625 -0.414062 6.746094 -0.160156 C 6.226562 0.0898438 5.632812 0.234375 4.953125 0.234375 C 3.730469 0.234375 2.746094 -0.234375 1.972656 -1.183594 C 1.183594 -2.136719 0.808594 -3.375 0.808594 -4.878906 C 0.808594 -6.386719 1.183594 -7.625 1.972656 -8.59375 C 2.746094 -9.5625 3.730469 -10.046875 4.953125 -10.046875 C 5.632812 -10.046875 6.226562 -9.90625 6.746094 -9.636719 C 7.265625 -9.367188 7.75 -8.953125 8.183594 -8.378906 Z M 6.117188 -2.027344 C 6.78125 -2.027344 7.285156 -2.261719 7.644531 -2.761719 C 8.003906 -3.246094 8.183594 -3.964844 8.183594 -4.898438 C 8.183594 -5.832031 8.003906 -6.53125 7.644531 -7.035156 C 7.285156 -7.519531 6.78125 -7.769531 6.117188 -7.769531 C 5.4375 -7.769531 4.933594 -7.519531 4.574219 -7.035156 C 4.214844 -6.53125 4.054688 -5.832031 4.054688 -4.898438 C 4.054688 -3.964844 4.214844 -3.246094 4.574219 -2.761719 C 4.933594 -2.261719 5.4375 -2.027344 6.117188 -2.027344 Z M 6.117188 -2.027344 "/>
</g>
<g id="glyph-2-0">
<path d="M -13.082031 -1.652344 L -13.082031 -10.75 L -10.53125 -10.75 L -10.53125 -5.023438 L -8.09375 -5.023438 L -8.09375 -10.40625 L -5.542969 -10.40625 L -5.542969 -5.023438 L -2.546875 -5.023438 L -2.546875 -10.945312 L 0 -10.945312 L 0 -1.652344 Z M -13.082031 -1.652344 "/>
</g>
<g id="glyph-2-1">
<path d="M -7.140625 -8.792969 C -7.265625 -8.503906 -7.355469 -8.234375 -7.429688 -7.96875 C -7.484375 -7.699219 -7.519531 -7.429688 -7.519531 -7.160156 C -7.519531 -6.351562 -7.25 -5.722656 -6.746094 -5.292969 C -6.226562 -4.863281 -5.492188 -4.648438 -4.523438 -4.648438 L 0 -4.648438 L 0 -1.507812 L -9.816406 -1.507812 L -9.816406 -4.648438 L -8.199219 -4.648438 C -8.847656 -5.042969 -9.3125 -5.492188 -9.601562 -6.027344 C -9.886719 -6.550781 -10.046875 -7.175781 -10.046875 -7.914062 C -10.046875 -8.019531 -10.03125 -8.128906 -10.03125 -8.253906 C -10.03125 -8.363281 -10.011719 -8.542969 -9.976562 -8.792969 Z M -7.140625 -8.792969 "/>
</g>
<g id="glyph-2-2">
<path d="M -7.804688 -6.171875 C -7.804688 -5.472656 -7.554688 -4.933594 -7.050781 -4.574219 C -6.550781 -4.214844 -5.832031 -4.039062 -4.898438 -4.039062 C -3.949219 -4.039062 -3.230469 -4.214844 -2.726562 -4.574219 C -2.226562 -4.933594 -1.992188 -5.472656 -1.992188 -6.171875 C -1.992188 -6.855469 -2.226562 -7.375 -2.726562 -7.734375 C -3.230469 -8.09375 -3.949219 -8.289062 -4.898438 -8.289062 C -5.832031 -8.289062 -6.550781 -8.09375 -7.050781 -7.734375 C -7.554688 -7.375 -7.804688 -6.855469 -7.804688 -6.171875 Z M -10.046875 -6.171875 C -10.046875 -7.859375 -9.582031 -9.167969 -8.683594 -10.121094 C -7.769531 -11.070312 -6.511719 -11.554688 -4.898438 -11.554688 C -3.285156 -11.554688 -2.007812 -11.070312 -1.113281 -10.121094 C -0.214844 -9.167969 0.234375 -7.859375 0.234375 -6.171875 C 0.234375 -4.484375 -0.214844 -3.15625 -1.113281 -2.207031 C -2.007812 -1.238281 -3.285156 -0.773438 -4.898438 -0.773438 C -6.511719 -0.773438 -7.769531 -1.238281 -8.683594 -2.207031 C -9.582031 -3.15625 -10.046875 -4.484375 -10.046875 -6.171875 Z M -10.046875 -6.171875 "/>
</g>
<g id="glyph-2-3">
</g>
<g id="glyph-2-4">
<path d="M 2.351562 -6.765625 L 2.351562 -4.164062 C 0.898438 -3.265625 -0.464844 -2.601562 -1.757812 -2.171875 C -3.050781 -1.742188 -4.324219 -1.542969 -5.617188 -1.542969 C -6.890625 -1.542969 -8.183594 -1.757812 -9.492188 -2.1875 C -10.800781 -2.621094 -12.183594 -3.265625 -13.621094 -4.164062 L -13.621094 -6.765625 C -12.21875 -6.011719 -10.875 -5.4375 -9.546875 -5.078125 C -8.21875 -4.703125 -6.925781 -4.523438 -5.632812 -4.523438 C -4.34375 -4.523438 -3.03125 -4.703125 -1.703125 -5.078125 C -0.375 -5.4375 0.949219 -6.011719 2.351562 -6.765625 Z M 2.351562 -6.765625 "/>
</g>
<g id="glyph-2-5">
<path d="M -5.402344 -13.90625 C -5.402344 -13.476562 -5.222656 -13.152344 -4.863281 -12.9375 C -4.503906 -12.703125 -3.984375 -12.597656 -3.320312 -12.597656 C -2.636719 -12.597656 -2.136719 -12.703125 -1.777344 -12.9375 C -1.417969 -13.152344 -1.238281 -13.476562 -1.238281 -13.90625 C -1.238281 -14.320312 -1.417969 -14.640625 -1.777344 -14.859375 C -2.136719 -15.074219 -2.636719 -15.199219 -3.320312 -15.199219 C -3.984375 -15.199219 -4.503906 -15.074219 -4.863281 -14.859375 C -5.222656 -14.640625 -5.402344 -14.320312 -5.402344 -13.90625 Z M -6.871094 -13.90625 C -6.871094 -14.984375 -6.550781 -15.84375 -5.921875 -16.472656 C -5.277344 -17.082031 -4.414062 -17.40625 -3.320312 -17.40625 C -2.207031 -17.40625 -1.347656 -17.082031 -0.71875 -16.472656 C -0.0703125 -15.84375 0.234375 -14.984375 0.234375 -13.90625 C 0.234375 -12.8125 -0.0703125 -11.949219 -0.71875 -11.324219 C -1.347656 -10.695312 -2.207031 -10.390625 -3.320312 -10.390625 C -4.414062 -10.390625 -5.277344 -10.695312 -5.921875 -11.324219 C -6.550781 -11.949219 -6.871094 -12.8125 -6.871094 -13.90625 Z M 0.234375 -5.867188 L 0.234375 -3.929688 L -13.3125 -12.113281 L -13.3125 -14.050781 Z M -13.3125 -4.074219 C -13.3125 -5.148438 -12.992188 -6.011719 -12.363281 -6.640625 C -11.71875 -7.25 -10.855469 -7.574219 -9.761719 -7.574219 C -8.648438 -7.574219 -7.789062 -7.25 -7.140625 -6.640625 C -6.496094 -6.011719 -6.191406 -5.148438 -6.191406 -4.074219 C -6.191406 -2.980469 -6.496094 -2.117188 -7.140625 -1.507812 C -7.789062 -0.878906 -8.648438 -0.574219 -9.761719 -0.574219 C -10.855469 -0.574219 -11.71875 -0.878906 -12.363281 -1.507812 C -12.992188 -2.117188 -13.3125 -2.980469 -13.3125 -4.074219 Z M -11.84375 -4.074219 C -11.84375 -3.644531 -11.664062 -3.320312 -11.304688 -3.105469 C -10.945312 -2.871094 -10.425781 -2.761719 -9.761719 -2.761719 C -9.078125 -2.761719 -8.558594 -2.871094 -8.199219 -3.105469 C -7.839844 -3.320312 -7.660156 -3.644531 -7.660156 -4.074219 C -7.660156 -4.484375 -7.839844 -4.808594 -8.199219 -5.042969 C -8.558594 -5.257812 -9.078125 -5.382812 -9.761719 -5.382812 C -10.425781 -5.382812 -10.945312 -5.257812 -11.304688 -5.042969 C -11.664062 -4.808594 -11.84375 -4.484375 -11.84375 -4.074219 Z M -11.84375 -4.074219 "/>
</g>
<g id="glyph-2-6">
<path d="M 2.351562 -1.433594 C 0.949219 -2.1875 -0.375 -2.746094 -1.703125 -3.121094 C -3.03125 -3.480469 -4.34375 -3.679688 -5.632812 -3.679688 C -6.925781 -3.679688 -8.21875 -3.480469 -9.546875 -3.121094 C -10.875 -2.746094 -12.21875 -2.1875 -13.621094 -1.433594 L -13.621094 -4.039062 C -12.183594 -4.917969 -10.800781 -5.582031 -9.492188 -6.011719 C -8.183594 -6.441406 -6.890625 -6.65625 -5.617188 -6.65625 C -4.324219 -6.65625 -3.050781 -6.441406 -1.757812 -6.011719 C -0.464844 -5.582031 0.898438 -4.933594 2.351562 -4.039062 Z M 2.351562 -1.433594 "/>
</g>
<g id="glyph-3-0">
<path d="M 5.453125 -10.082031 L 3.316406 -4.289062 L 7.59375 -4.289062 Z M 4.5625 -11.628906 L 6.347656 -11.628906 L 10.78125 0 L 9.140625 0 L 8.085938 -2.984375 L 2.839844 -2.984375 L 1.785156 0 L 0.128906 0 Z M 4.5625 -11.628906 "/>
</g>
<g id="glyph-3-1">
<path d="M 7.785156 -8.390625 L 7.785156 -7.050781 C 7.367188 -7.273438 6.96875 -7.433594 6.554688 -7.542969 C 6.140625 -7.65625 5.742188 -7.71875 5.328125 -7.71875 C 4.402344 -7.71875 3.667969 -7.417969 3.15625 -6.828125 C 2.648438 -6.238281 2.390625 -5.40625 2.390625 -4.355469 C 2.390625 -3.285156 2.648438 -2.457031 3.15625 -1.867188 C 3.667969 -1.277344 4.402344 -0.988281 5.328125 -0.988281 C 5.742188 -0.988281 6.140625 -1.035156 6.554688 -1.148438 C 6.96875 -1.261719 7.367188 -1.433594 7.785156 -1.660156 L 7.785156 -0.335938 C 7.367188 -0.144531 6.953125 0 6.539062 0.078125 C 6.109375 0.160156 5.644531 0.207031 5.167969 0.207031 C 3.859375 0.207031 2.808594 -0.191406 2.042969 -1.019531 C 1.261719 -1.835938 0.878906 -2.949219 0.878906 -4.355469 C 0.878906 -5.773438 1.261719 -6.890625 2.042969 -7.703125 C 2.824219 -8.515625 3.890625 -8.933594 5.261719 -8.933594 C 5.710938 -8.933594 6.140625 -8.882812 6.554688 -8.789062 C 6.96875 -8.691406 7.386719 -8.566406 7.785156 -8.390625 Z M 7.785156 -8.390625 "/>
</g>
<g id="glyph-3-2">
<path d="M 8.964844 -4.722656 L 8.964844 -4.019531 L 2.375 -4.019531 C 2.441406 -3.03125 2.726562 -2.265625 3.269531 -1.753906 C 3.796875 -1.242188 4.53125 -0.988281 5.488281 -0.988281 C 6.027344 -0.988281 6.570312 -1.050781 7.082031 -1.179688 C 7.59375 -1.308594 8.117188 -1.515625 8.628906 -1.800781 L 8.628906 -0.445312 C 8.117188 -0.222656 7.59375 -0.046875 7.050781 0.046875 C 6.507812 0.144531 5.949219 0.207031 5.40625 0.207031 C 4.003906 0.207031 2.902344 -0.191406 2.089844 -0.988281 C 1.277344 -1.785156 0.878906 -2.886719 0.878906 -4.273438 C 0.878906 -5.695312 1.261719 -6.828125 2.027344 -7.671875 C 2.792969 -8.5 3.84375 -8.933594 5.152344 -8.933594 C 6.332031 -8.933594 7.257812 -8.550781 7.941406 -7.800781 C 8.613281 -7.035156 8.964844 -6.011719 8.964844 -4.722656 Z M 7.527344 -5.136719 C 7.511719 -5.917969 7.289062 -6.539062 6.875 -7.019531 C 6.445312 -7.480469 5.871094 -7.71875 5.167969 -7.71875 C 4.371094 -7.71875 3.730469 -7.480469 3.253906 -7.035156 C 2.773438 -6.585938 2.488281 -5.949219 2.425781 -5.136719 Z M 7.527344 -5.136719 "/>
</g>
<g id="glyph-3-3">
<path d="M 1.5 -12.121094 L 2.933594 -12.121094 L 2.933594 0 L 1.5 0 Z M 1.5 -12.121094 "/>
</g>
<g id="glyph-3-4">
<path d="M 0.78125 -5.007812 L 4.976562 -5.007812 L 4.976562 -3.730469 L 0.78125 -3.730469 Z M 0.78125 -5.007812 "/>
</g>
<g id="glyph-3-5">
<path d="M 7.066406 -8.46875 L 7.066406 -7.113281 C 6.652344 -7.304688 6.238281 -7.464844 5.804688 -7.578125 C 5.359375 -7.671875 4.914062 -7.734375 4.449219 -7.734375 C 3.730469 -7.734375 3.191406 -7.625 2.839844 -7.402344 C 2.488281 -7.175781 2.3125 -6.859375 2.3125 -6.429688 C 2.3125 -6.09375 2.441406 -5.835938 2.695312 -5.644531 C 2.949219 -5.453125 3.460938 -5.261719 4.226562 -5.105469 L 4.722656 -4.992188 C 5.742188 -4.769531 6.460938 -4.449219 6.890625 -4.066406 C 7.304688 -3.667969 7.527344 -3.109375 7.527344 -2.410156 C 7.527344 -1.59375 7.210938 -0.957031 6.570312 -0.496094 C 5.933594 -0.015625 5.039062 0.207031 3.921875 0.207031 C 3.445312 0.207031 2.964844 0.160156 2.457031 0.078125 C 1.945312 0 1.417969 -0.128906 0.859375 -0.320312 L 0.859375 -1.800781 C 1.386719 -1.515625 1.914062 -1.308594 2.425781 -1.179688 C 2.933594 -1.035156 3.445312 -0.972656 3.957031 -0.972656 C 4.625 -0.972656 5.152344 -1.085938 5.519531 -1.308594 C 5.871094 -1.53125 6.0625 -1.867188 6.0625 -2.296875 C 6.0625 -2.679688 5.917969 -2.984375 5.664062 -3.191406 C 5.40625 -3.398438 4.832031 -3.605469 3.941406 -3.796875 L 3.445312 -3.90625 C 2.550781 -4.097656 1.898438 -4.386719 1.515625 -4.769531 C 1.117188 -5.152344 0.925781 -5.679688 0.925781 -6.363281 C 0.925781 -7.175781 1.210938 -7.816406 1.785156 -8.261719 C 2.359375 -8.707031 3.191406 -8.933594 4.273438 -8.933594 C 4.800781 -8.933594 5.296875 -8.882812 5.773438 -8.804688 C 6.238281 -8.726562 6.667969 -8.613281 7.066406 -8.46875 Z M 7.066406 -8.46875 "/>
</g>
<g id="glyph-3-6">
<path d="M 1.5 -8.726562 L 2.933594 -8.726562 L 2.933594 0 L 1.5 0 Z M 1.5 -12.121094 L 2.933594 -12.121094 L 2.933594 -10.304688 L 1.5 -10.304688 Z M 1.5 -12.121094 "/>
</g>
<g id="glyph-3-7">
<path d="M 8.292969 -7.050781 C 8.644531 -7.6875 9.074219 -8.152344 9.570312 -8.46875 C 10.066406 -8.773438 10.65625 -8.933594 11.339844 -8.933594 C 12.234375 -8.933594 12.933594 -8.613281 13.429688 -7.976562 C 13.925781 -7.335938 14.179688 -6.429688 14.179688 -5.261719 L 14.179688 0 L 12.742188 0 L 12.742188 -5.214844 C 12.742188 -6.046875 12.585938 -6.667969 12.296875 -7.082031 C 11.996094 -7.480469 11.546875 -7.6875 10.941406 -7.6875 C 10.191406 -7.6875 9.601562 -7.433594 9.171875 -6.9375 C 8.742188 -6.445312 8.535156 -5.773438 8.535156 -4.929688 L 8.535156 0 L 7.097656 0 L 7.097656 -5.214844 C 7.097656 -6.046875 6.9375 -6.667969 6.652344 -7.082031 C 6.347656 -7.480469 5.886719 -7.6875 5.28125 -7.6875 C 4.546875 -7.6875 3.957031 -7.433594 3.523438 -6.9375 C 3.09375 -6.445312 2.886719 -5.773438 2.886719 -4.929688 L 2.886719 0 L 1.453125 0 L 1.453125 -8.726562 L 2.886719 -8.726562 L 2.886719 -7.367188 C 3.207031 -7.894531 3.605469 -8.292969 4.066406 -8.550781 C 4.515625 -8.804688 5.054688 -8.933594 5.695312 -8.933594 C 6.332031 -8.933594 6.859375 -8.773438 7.304688 -8.453125 C 7.75 -8.132812 8.070312 -7.65625 8.292969 -7.050781 Z M 8.292969 -7.050781 "/>
</g>
<g id="glyph-3-8">
<path d="M 6.285156 -10.558594 C 5.136719 -10.558594 4.226562 -10.128906 3.558594 -9.28125 C 2.886719 -8.421875 2.550781 -7.273438 2.550781 -5.804688 C 2.550781 -4.339844 2.886719 -3.175781 3.558594 -2.328125 C 4.226562 -1.46875 5.136719 -1.050781 6.285156 -1.050781 C 7.417969 -1.050781 8.324219 -1.46875 8.996094 -2.328125 C 9.664062 -3.175781 10 -4.339844 10 -5.804688 C 10 -7.273438 9.664062 -8.421875 8.996094 -9.28125 C 8.324219 -10.128906 7.417969 -10.558594 6.285156 -10.558594 Z M 6.285156 -11.835938 C 7.910156 -11.835938 9.203125 -11.277344 10.191406 -10.191406 C 11.164062 -9.109375 11.660156 -7.640625 11.660156 -5.804688 C 11.660156 -3.957031 11.164062 -2.503906 10.191406 -1.417969 C 9.203125 -0.335938 7.910156 0.207031 6.285156 0.207031 C 4.640625 0.207031 3.332031 -0.335938 2.359375 -1.417969 C 1.371094 -2.503906 0.894531 -3.957031 0.894531 -5.804688 C 0.894531 -7.640625 1.371094 -9.109375 2.359375 -10.191406 C 3.332031 -11.277344 4.640625 -11.835938 6.285156 -11.835938 Z M 6.285156 -11.835938 "/>
</g>
<g id="glyph-3-9">
<path d="M 1.355469 -3.445312 L 1.355469 -8.726562 L 2.792969 -8.726562 L 2.792969 -3.492188 C 2.792969 -2.664062 2.949219 -2.058594 3.269531 -1.644531 C 3.589844 -1.226562 4.066406 -1.019531 4.722656 -1.019531 C 5.488281 -1.019531 6.109375 -1.261719 6.554688 -1.753906 C 7.003906 -2.25 7.226562 -2.917969 7.226562 -3.78125 L 7.226562 -8.726562 L 8.660156 -8.726562 L 8.660156 0 L 7.226562 0 L 7.226562 -1.339844 C 6.875 -0.796875 6.460938 -0.414062 6.011719 -0.160156 C 5.550781 0.078125 5.023438 0.207031 4.417969 0.207031 C 3.414062 0.207031 2.648438 -0.09375 2.136719 -0.71875 C 1.609375 -1.324219 1.355469 -2.234375 1.355469 -3.445312 Z M 4.960938 -8.933594 Z M 4.960938 -8.933594 "/>
</g>
<g id="glyph-3-10">
<path d="M 6.554688 -7.386719 C 6.394531 -7.480469 6.21875 -7.542969 6.027344 -7.59375 C 5.835938 -7.625 5.628906 -7.65625 5.40625 -7.65625 C 4.59375 -7.65625 3.972656 -7.386719 3.539062 -6.859375 C 3.09375 -6.332031 2.886719 -5.582031 2.886719 -4.59375 L 2.886719 0 L 1.453125 0 L 1.453125 -8.726562 L 2.886719 -8.726562 L 2.886719 -7.367188 C 3.175781 -7.894531 3.574219 -8.292969 4.050781 -8.550781 C 4.53125 -8.804688 5.121094 -8.933594 5.820312 -8.933594 C 5.917969 -8.933594 6.027344 -8.917969 6.15625 -8.917969 C 6.269531 -8.898438 6.394531 -8.882812 6.554688 -8.851562 Z M 6.554688 -7.386719 "/>
</g>
<g id="glyph-3-11">
</g>
<g id="glyph-3-12">
<path d="M 2.886719 -1.308594 L 2.886719 3.300781 L 1.453125 3.300781 L 1.453125 -8.726562 L 2.886719 -8.726562 L 2.886719 -7.402344 C 3.175781 -7.910156 3.558594 -8.292969 4.019531 -8.550781 C 4.480469 -8.804688 5.039062 -8.933594 5.679688 -8.933594 C 6.730469 -8.933594 7.59375 -8.5 8.261719 -7.671875 C 8.917969 -6.828125 9.25 -5.726562 9.25 -4.355469 C 9.25 -2.984375 8.917969 -1.867188 8.261719 -1.035156 C 7.59375 -0.207031 6.730469 0.207031 5.679688 0.207031 C 5.039062 0.207031 4.480469 0.078125 4.019531 -0.160156 C 3.558594 -0.398438 3.175781 -0.78125 2.886719 -1.308594 Z M 7.769531 -4.355469 C 7.769531 -5.40625 7.542969 -6.21875 7.113281 -6.828125 C 6.667969 -7.433594 6.078125 -7.734375 5.328125 -7.734375 C 4.5625 -7.734375 3.972656 -7.433594 3.539062 -6.828125 C 3.09375 -6.21875 2.886719 -5.40625 2.886719 -4.355469 C 2.886719 -3.300781 3.09375 -2.472656 3.539062 -1.867188 C 3.972656 -1.261719 4.5625 -0.972656 5.328125 -0.972656 C 6.078125 -0.972656 6.667969 -1.261719 7.113281 -1.867188 C 7.542969 -2.472656 7.769531 -3.300781 7.769531 -4.355469 Z M 7.769531 -4.355469 "/>
</g>
<g id="glyph-3-13">
<path d="M 5.472656 -4.386719 C 4.304688 -4.386719 3.507812 -4.242188 3.0625 -3.988281 C 2.617188 -3.714844 2.390625 -3.269531 2.390625 -2.632812 C 2.390625 -2.121094 2.550781 -1.707031 2.886719 -1.417969 C 3.222656 -1.117188 3.683594 -0.972656 4.257812 -0.972656 C 5.054688 -0.972656 5.695312 -1.242188 6.171875 -1.816406 C 6.652344 -2.375 6.890625 -3.125 6.890625 -4.066406 L 6.890625 -4.386719 Z M 8.324219 -4.976562 L 8.324219 0 L 6.890625 0 L 6.890625 -1.324219 C 6.554688 -0.78125 6.140625 -0.398438 5.664062 -0.160156 C 5.183594 0.078125 4.578125 0.207031 3.875 0.207031 C 2.984375 0.207031 2.265625 -0.03125 1.738281 -0.527344 C 1.210938 -1.019531 0.957031 -1.691406 0.957031 -2.535156 C 0.957031 -3.507812 1.277344 -4.242188 1.945312 -4.753906 C 2.601562 -5.246094 3.574219 -5.503906 4.878906 -5.503906 L 6.890625 -5.503906 L 6.890625 -5.644531 C 6.890625 -6.300781 6.667969 -6.8125 6.238281 -7.175781 C 5.804688 -7.527344 5.199219 -7.71875 4.417969 -7.71875 C 3.90625 -7.71875 3.429688 -7.65625 2.949219 -7.527344 C 2.472656 -7.402344 2.027344 -7.226562 1.59375 -7.003906 L 1.59375 -8.324219 C 2.105469 -8.515625 2.617188 -8.675781 3.109375 -8.773438 C 3.605469 -8.867188 4.082031 -8.933594 4.5625 -8.933594 C 5.820312 -8.933594 6.761719 -8.597656 7.386719 -7.941406 C 8.007812 -7.289062 8.324219 -6.300781 8.324219 -4.976562 Z M 8.324219 -4.976562 "/>
</g>
</g>
<clipPath id="clip-0">
<path clip-rule="nonzero" d="M 1.007812 0 L 684.738281 0 L 684.738281 277.261719 L 1.007812 277.261719 Z M 1.007812 0 "/>
</clipPath>
<clipPath id="clip-1">
<path clip-rule="nonzero" d="M 92 16 L 651 16 L 651 228.246094 L 92 228.246094 Z M 92 16 "/>
</clipPath>
<clipPath id="clip-2">
<path clip-rule="nonzero" d="M 92 203 L 651 203 L 651 228.246094 L 92 228.246094 Z M 92 203 "/>
</clipPath>
</defs>
<g clip-path="url(#clip-0)">
<path fill-rule="nonzero" fill="rgb(100%, 100%, 100%)" fill-opacity="1" d="M 1.007812 277.261719 L 684.738281 277.261719 L 684.738281 0 L 1.007812 0 Z M 1.007812 277.261719 "/>
</g>
<path fill-rule="nonzero" fill="rgb(100%, 100%, 100%)" fill-opacity="1" d="M 65.675781 228.246094 L 677.558594 228.246094 L 677.558594 7.175781 L 65.675781 7.175781 Z M 65.675781 228.246094 "/>
<path fill="none" stroke-width="0.8" stroke-linecap="butt" stroke-linejoin="round" stroke="rgb(0%, 0%, 0%)" stroke-opacity="1" stroke-miterlimit="10" d="M 92.770938 49.167666 L 92.770938 45.668457 " transform="matrix(0.996877, 0, 0, -0.996877, 1.007044, 277.260221)"/>
<g fill="rgb(0%, 0%, 0%)" fill-opacity="1">
<use xlink:href="#glyph-0-0" x="88.629438" y="245.83055"/>
</g>
<path fill="none" stroke-width="0.8" stroke-linecap="butt" stroke-linejoin="round" stroke="rgb(0%, 0%, 0%)" stroke-opacity="1" stroke-miterlimit="10" d="M 171.364022 49.167666 L 171.364022 45.668457 " transform="matrix(0.996877, 0, 0, -0.996877, 1.007044, 277.260221)"/>
<g fill="rgb(0%, 0%, 0%)" fill-opacity="1">
<use xlink:href="#glyph-0-1" x="162.115789" y="245.83055"/>
<use xlink:href="#glyph-0-0" x="171.82936" y="245.83055"/>
</g>
<path fill="none" stroke-width="0.8" stroke-linecap="butt" stroke-linejoin="round" stroke="rgb(0%, 0%, 0%)" stroke-opacity="1" stroke-miterlimit="10" d="M 249.953187 49.167666 L 249.953187 45.668457 " transform="matrix(0.996877, 0, 0, -0.996877, 1.007044, 277.260221)"/>
<g fill="rgb(0%, 0%, 0%)" fill-opacity="1">
<use xlink:href="#glyph-0-2" x="240.461915" y="245.83055"/>
<use xlink:href="#glyph-0-0" x="250.175487" y="245.83055"/>
</g>
<path fill="none" stroke-width="0.8" stroke-linecap="butt" stroke-linejoin="round" stroke="rgb(0%, 0%, 0%)" stroke-opacity="1" stroke-miterlimit="10" d="M 328.546271 49.167666 L 328.546271 45.668457 " transform="matrix(0.996877, 0, 0, -0.996877, 1.007044, 277.260221)"/>
<g fill="rgb(0%, 0%, 0%)" fill-opacity="1">
<use xlink:href="#glyph-0-3" x="318.808042" y="245.83055"/>
<use xlink:href="#glyph-0-0" x="328.521614" y="245.83055"/>
</g>
<path fill="none" stroke-width="0.8" stroke-linecap="butt" stroke-linejoin="round" stroke="rgb(0%, 0%, 0%)" stroke-opacity="1" stroke-miterlimit="10" d="M 407.139354 49.167666 L 407.139354 45.668457 " transform="matrix(0.996877, 0, 0, -0.996877, 1.007044, 277.260221)"/>
<g fill="rgb(0%, 0%, 0%)" fill-opacity="1">
<use xlink:href="#glyph-0-4" x="397.154169" y="245.83055"/>
<use xlink:href="#glyph-0-0" x="406.867741" y="245.83055"/>
</g>
<path fill="none" stroke-width="0.8" stroke-linecap="butt" stroke-linejoin="round" stroke="rgb(0%, 0%, 0%)" stroke-opacity="1" stroke-miterlimit="10" d="M 485.728519 49.167666 L 485.728519 45.668457 " transform="matrix(0.996877, 0, 0, -0.996877, 1.007044, 277.260221)"/>
<g fill="rgb(0%, 0%, 0%)" fill-opacity="1">
<use xlink:href="#glyph-0-5" x="470.640519" y="245.83055"/>
<use xlink:href="#glyph-0-0" x="480.354091" y="245.83055"/>
<use xlink:href="#glyph-0-0" x="490.067663" y="245.83055"/>
</g>
<path fill="none" stroke-width="0.8" stroke-linecap="butt" stroke-linejoin="round" stroke="rgb(0%, 0%, 0%)" stroke-opacity="1" stroke-miterlimit="10" d="M 564.321603 49.167666 L 564.321603 45.668457 " transform="matrix(0.996877, 0, 0, -0.996877, 1.007044, 277.260221)"/>
<g fill="rgb(0%, 0%, 0%)" fill-opacity="1">
<use xlink:href="#glyph-0-5" x="548.986646" y="245.83055"/>
<use xlink:href="#glyph-0-1" x="558.700218" y="245.83055"/>
<use xlink:href="#glyph-0-0" x="568.413789" y="245.83055"/>
</g>
<path fill="none" stroke-width="0.8" stroke-linecap="butt" stroke-linejoin="round" stroke="rgb(0%, 0%, 0%)" stroke-opacity="1" stroke-miterlimit="10" d="M 642.910768 49.167666 L 642.910768 45.668457 " transform="matrix(0.996877, 0, 0, -0.996877, 1.007044, 277.260221)"/>
<g fill="rgb(0%, 0%, 0%)" fill-opacity="1">
<use xlink:href="#glyph-0-5" x="627.332773" y="245.83055"/>
<use xlink:href="#glyph-0-2" x="637.046344" y="245.83055"/>
<use xlink:href="#glyph-0-0" x="646.759916" y="245.83055"/>
</g>
<g fill="rgb(0%, 0%, 0%)" fill-opacity="1">
<use xlink:href="#glyph-1-0" x="323.752281" y="266.344415"/>
</g>
<g fill="rgb(0%, 0%, 0%)" fill-opacity="1">
<use xlink:href="#glyph-1-1" x="342.905657" y="266.344415"/>
<use xlink:href="#glyph-1-2" x="355.233041" y="266.344415"/>
<use xlink:href="#glyph-1-3" x="364.07933" y="266.344415"/>
<use xlink:href="#glyph-1-4" x="376.01195" y="266.344415"/>
<use xlink:href="#glyph-1-1" x="382.166671" y="266.344415"/>
<use xlink:href="#glyph-1-5" x="394.494055" y="266.344415"/>
<use xlink:href="#glyph-1-6" x="406.606113" y="266.344415"/>
</g>
<path fill="none" stroke-width="0.8" stroke-linecap="butt" stroke-linejoin="round" stroke="rgb(0%, 0%, 0%)" stroke-opacity="1" stroke-miterlimit="10" d="M 64.871315 49.167666 L 61.372106 49.167666 " transform="matrix(0.996877, 0, 0, -0.996877, 1.007044, 277.260221)"/>
<g fill="rgb(0%, 0%, 0%)" fill-opacity="1">
<use xlink:href="#glyph-0-0" x="48.978646" y="233.548711"/>
</g>
<path fill="none" stroke-width="0.8" stroke-linecap="butt" stroke-linejoin="round" stroke="rgb(0%, 0%, 0%)" stroke-opacity="1" stroke-miterlimit="10" d="M 64.871315 88.015541 L 61.372106 88.015541 " transform="matrix(0.996877, 0, 0, -0.996877, 1.007044, 277.260221)"/>
<g fill="rgb(0%, 0%, 0%)" fill-opacity="1">
<use xlink:href="#glyph-0-5" x="29.53954" y="194.82433"/>
<use xlink:href="#glyph-0-0" x="39.253112" y="194.82433"/>
<use xlink:href="#glyph-0-0" x="48.966684" y="194.82433"/>
</g>
<path fill="none" stroke-width="0.8" stroke-linecap="butt" stroke-linejoin="round" stroke="rgb(0%, 0%, 0%)" stroke-opacity="1" stroke-miterlimit="10" d="M 64.871315 126.859497 L 61.372106 126.859497 " transform="matrix(0.996877, 0, 0, -0.996877, 1.007044, 277.260221)"/>
<g fill="rgb(0%, 0%, 0%)" fill-opacity="1">
<use xlink:href="#glyph-0-1" x="29.53954" y="156.09995"/>
<use xlink:href="#glyph-0-0" x="39.253112" y="156.09995"/>
<use xlink:href="#glyph-0-0" x="48.966684" y="156.09995"/>
</g>
<path fill="none" stroke-width="0.8" stroke-linecap="butt" stroke-linejoin="round" stroke="rgb(0%, 0%, 0%)" stroke-opacity="1" stroke-miterlimit="10" d="M 64.871315 165.707373 L 61.372106 165.707373 " transform="matrix(0.996877, 0, 0, -0.996877, 1.007044, 277.260221)"/>
<g fill="rgb(0%, 0%, 0%)" fill-opacity="1">
<use xlink:href="#glyph-0-6" x="29.53954" y="117.375569"/>
<use xlink:href="#glyph-0-0" x="39.253112" y="117.375569"/>
<use xlink:href="#glyph-0-0" x="48.966684" y="117.375569"/>
</g>
<path fill="none" stroke-width="0.8" stroke-linecap="butt" stroke-linejoin="round" stroke="rgb(0%, 0%, 0%)" stroke-opacity="1" stroke-miterlimit="10" d="M 64.871315 204.551329 L 61.372106 204.551329 " transform="matrix(0.996877, 0, 0, -0.996877, 1.007044, 277.260221)"/>
<g fill="rgb(0%, 0%, 0%)" fill-opacity="1">
<use xlink:href="#glyph-0-2" x="29.53954" y="78.651188"/>
<use xlink:href="#glyph-0-0" x="39.253112" y="78.651188"/>
<use xlink:href="#glyph-0-0" x="48.966684" y="78.651188"/>
</g>
<path fill="none" stroke-width="0.8" stroke-linecap="butt" stroke-linejoin="round" stroke="rgb(0%, 0%, 0%)" stroke-opacity="1" stroke-miterlimit="10" d="M 64.871315 243.395286 L 61.372106 243.395286 " transform="matrix(0.996877, 0, 0, -0.996877, 1.007044, 277.260221)"/>
<g fill="rgb(0%, 0%, 0%)" fill-opacity="1">
<use xlink:href="#glyph-0-7" x="29.53954" y="39.926807"/>
<use xlink:href="#glyph-0-0" x="39.253112" y="39.926807"/>
<use xlink:href="#glyph-0-0" x="48.966684" y="39.926807"/>
</g>
<g fill="rgb(0%, 0%, 0%)" fill-opacity="1">
<use xlink:href="#glyph-2-0" x="21.813741" y="163.59877"/>
<use xlink:href="#glyph-2-1" x="21.813741" y="151.343161"/>
<use xlink:href="#glyph-2-1" x="21.813741" y="142.496873"/>
<use xlink:href="#glyph-2-2" x="21.813741" y="133.650584"/>
<use xlink:href="#glyph-2-1" x="21.813741" y="121.3232"/>
<use xlink:href="#glyph-2-3" x="21.813741" y="112.476911"/>
<use xlink:href="#glyph-2-4" x="21.813741" y="106.232472"/>
<use xlink:href="#glyph-2-5" x="21.813741" y="98.03216"/>
<use xlink:href="#glyph-2-6" x="21.813741" y="80.052482"/>
</g>
<g clip-path="url(#clip-1)">
<path fill="none" stroke-width="1.5" stroke-linecap="square" stroke-linejoin="round" stroke="rgb(25.489807%, 41.175842%, 88.233948%)" stroke-opacity="1" stroke-miterlimit="10" d="M 92.770938 49.273465 L 104.561664 49.461552 L 120.278714 49.586944 L 132.06944 49.602618 L 139.926005 49.837727 L 171.364022 50.354967 L 175.294264 50.539136 L 179.224506 50.558728 L 183.150829 50.793838 L 214.588847 51.381611 L 222.44933 51.855748 L 226.375654 51.855748 L 234.236138 52.169226 L 238.16638 52.192737 L 242.096622 52.592423 L 265.674155 53.121419 L 269.604397 53.301669 L 281.391204 53.391794 L 304.968738 54.148062 L 308.898979 54.343986 L 324.616029 54.504644 L 328.546271 54.747591 L 348.193562 55.119847 L 356.054046 55.362793 L 359.984288 55.695864 L 363.91453 56.307148 L 375.701337 56.542257 L 379.631579 56.863573 L 391.418386 57.353384 L 395.348628 57.372976 L 399.27887 57.788336 L 418.926162 58.156674 L 434.643211 58.301658 L 458.220744 58.803224 L 462.150986 58.830653 L 466.081228 59.293035 L 470.01147 59.308709 L 477.871954 59.982688 L 481.798277 60.041466 L 485.728519 60.464662 L 493.589003 60.605728 L 497.519245 60.766386 L 501.449487 61.064191 L 513.236295 61.412936 L 521.096778 61.459958 L 525.02702 61.81654 L 532.883586 61.965443 L 536.813828 62.655096 L 540.74407 62.764814 L 548.604554 63.470141 L 552.530877 63.979545 L 556.461119 64.939574 L 560.391361 65.785967 L 564.321603 66.448191 L 568.251845 67.69427 L 572.182087 69.798497 L 576.10841 72.964634 L 580.038652 73.019493 L 583.968894 73.67388 L 587.899136 77.114311 L 591.829378 78.861956 L 595.75962 81.875273 L 599.685944 82.302388 L 603.616186 82.976367 L 615.406911 89.030429 L 619.337153 89.230272 L 623.263477 92.553148 L 627.193719 93.423052 L 631.123961 100.147175 L 635.054203 106.467694 L 638.984445 111.381476 L 642.910768 120.40575 L 646.84101 124.022513 L 650.771252 260.374088 " transform="matrix(0.996877, 0, 0, -0.996877, 1.007044, 277.260221)"/>
</g>
<g clip-path="url(#clip-2)">
<path fill="none" stroke-width="1.5" stroke-linecap="square" stroke-linejoin="round" stroke="rgb(19.607544%, 80.39093%, 19.607544%)" stroke-opacity="1" stroke-miterlimit="10" d="M 92.770938 49.281302 L 100.631422 49.508574 L 132.06944 49.626129 L 218.519089 50.672365 L 222.44933 50.797756 L 238.16638 50.895718 L 242.096622 51.27973 L 261.743913 51.444306 L 273.53072 51.636312 L 277.460962 51.816563 L 285.321446 51.973302 L 301.038496 52.380825 L 348.193562 53.082234 L 359.984288 53.137093 L 371.771095 53.344772 L 383.561821 53.525023 L 395.348628 53.889442 L 403.209112 54.042263 L 407.139354 54.336149 L 422.856404 54.759346 L 426.786646 54.912167 L 454.294421 55.217809 L 462.150986 55.449 L 473.941712 55.57831 L 485.728519 55.648842 L 505.375811 56.220941 L 509.306053 56.467806 L 525.02702 56.593198 L 536.813828 56.749937 L 540.74407 56.910595 L 548.604554 57.012476 L 552.530877 57.204482 L 568.251845 57.427835 L 572.182087 57.608086 L 576.10841 57.635515 L 580.038652 57.831439 L 583.968894 58.313413 L 587.899136 61.052435 L 591.829378 61.334566 L 599.685944 61.444284 L 603.616186 62.318106 L 607.546427 62.847102 L 611.476669 63.035189 L 615.406911 63.897256 L 619.337153 63.901175 L 623.263477 64.865123 L 627.193719 67.753047 L 631.123961 68.407434 L 635.054203 69.183295 L 638.984445 70.07671 L 642.910768 70.637053 L 646.84101 71.675452 L 650.771252 72.905857 " transform="matrix(0.996877, 0, 0, -0.996877, 1.007044, 277.260221)"/>
</g>
<path fill="none" stroke-width="0.8" stroke-linecap="square" stroke-linejoin="miter" stroke="rgb(0%, 0%, 0%)" stroke-opacity="1" stroke-miterlimit="10" d="M 64.871315 49.167666 L 64.871315 270.93049 " transform="matrix(0.996877, 0, 0, -0.996877, 1.007044, 277.260221)"/>
<path fill="none" stroke-width="0.8" stroke-linecap="square" stroke-linejoin="miter" stroke="rgb(0%, 0%, 0%)" stroke-opacity="1" stroke-miterlimit="10" d="M 678.670876 49.167666 L 678.670876 270.93049 " transform="matrix(0.996877, 0, 0, -0.996877, 1.007044, 277.260221)"/>
<path fill="none" stroke-width="0.8" stroke-linecap="square" stroke-linejoin="miter" stroke="rgb(0%, 0%, 0%)" stroke-opacity="1" stroke-miterlimit="10" d="M 64.871315 49.167666 L 678.670876 49.167666 " transform="matrix(0.996877, 0, 0, -0.996877, 1.007044, 277.260221)"/>
<path fill="none" stroke-width="0.8" stroke-linecap="square" stroke-linejoin="miter" stroke="rgb(0%, 0%, 0%)" stroke-opacity="1" stroke-miterlimit="10" d="M 64.871315 270.93049 L 678.670876 270.93049 " transform="matrix(0.996877, 0, 0, -0.996877, 1.007044, 277.260221)"/>
<path fill-rule="nonzero" fill="rgb(100%, 100%, 100%)" fill-opacity="0.8" stroke-width="1" stroke-linecap="butt" stroke-linejoin="miter" stroke="rgb(79.998779%, 79.998779%, 79.998779%)" stroke-opacity="0.8" stroke-miterlimit="10" d="M 76.070349 211.161816 L 208.225224 211.161816 C 210.356881 211.161816 211.426628 212.227644 211.426628 214.359301 L 211.426628 259.727537 C 211.426628 261.863113 210.356881 262.928941 208.225224 262.928941 L 76.070349 262.928941 C 73.938692 262.928941 72.872864 261.863113 72.872864 259.727537 L 72.872864 214.359301 C 72.872864 212.227644 73.938692 211.161816 76.070349 211.161816 Z M 76.070349 211.161816 " transform="matrix(0.996877, 0, 0, -0.996877, 1.007044, 277.260221)"/>
<path fill="none" stroke-width="1.5" stroke-linecap="square" stroke-linejoin="round" stroke="rgb(25.489807%, 41.175842%, 88.233948%)" stroke-opacity="1" stroke-miterlimit="10" d="M 79.271753 249.974425 L 111.270113 249.974425 " transform="matrix(0.996877, 0, 0, -0.996877, 1.007044, 277.260221)"/>
<g fill="rgb(0%, 0%, 0%)" fill-opacity="1">
<use xlink:href="#glyph-3-0" x="124.691472" y="33.650837"/>
</g>
<g fill="rgb(0%, 0%, 0%)" fill-opacity="1">
<use xlink:href="#glyph-3-1" x="135.320925" y="33.650837"/>
<use xlink:href="#glyph-3-1" x="144.093445" y="33.650837"/>
<use xlink:href="#glyph-3-2" x="152.865965" y="33.650837"/>
<use xlink:href="#glyph-3-3" x="162.675237" y="33.650837"/>
<use xlink:href="#glyph-3-4" x="167.109347" y="33.650837"/>
<use xlink:href="#glyph-3-5" x="172.86731" y="33.650837"/>
<use xlink:href="#glyph-3-6" x="181.177278" y="33.650837"/>
<use xlink:href="#glyph-3-7" x="185.611388" y="33.650837"/>
</g>
<path fill="none" stroke-width="1.5" stroke-linecap="square" stroke-linejoin="round" stroke="rgb(19.607544%, 80.39093%, 19.607544%)" stroke-opacity="1" stroke-miterlimit="10" d="M 79.271753 226.487017 L 111.270113 226.487017 " transform="matrix(0.996877, 0, 0, -0.996877, 1.007044, 277.260221)"/>
<g fill="rgb(0%, 0%, 0%)" fill-opacity="1">
<use xlink:href="#glyph-3-8" x="124.691472" y="57.061876"/>
<use xlink:href="#glyph-3-9" x="137.244151" y="57.061876"/>
<use xlink:href="#glyph-3-10" x="147.356473" y="57.061876"/>
<use xlink:href="#glyph-3-11" x="153.911938" y="57.061876"/>
<use xlink:href="#glyph-3-12" x="158.98405" y="57.061876"/>
<use xlink:href="#glyph-3-13" x="169.112322" y="57.061876"/>
<use xlink:href="#glyph-3-12" x="178.889694" y="57.061876"/>
<use xlink:href="#glyph-3-2" x="189.017967" y="57.061876"/>
<use xlink:href="#glyph-3-10" x="198.827239" y="57.061876"/>
</g>
</svg>
